<?xml version="1.0" standalone="no"?>
<!DOCTYPE svg PUBLIC "-//W3C//DTD SVG 20010904//EN"
 "http://www.w3.org/TR/2001/REC-SVG-20010904/DTD/svg10.dtd">
<svg version="1.0" xmlns="http://www.w3.org/2000/svg"
 width="180.000000pt" height="180.000000pt" viewBox="0 0 180.000000 180.000000"
 preserveAspectRatio="xMidYMid meet">
<metadata>
Created by potrace 1.14, written by Peter Selinger 2001-2017
</metadata>
<g transform="translate(0.000000,180.000000) scale(0.100000,-0.100000)"
fill="#000000" stroke="none">
<path d="M200 1761 c-75 -23 -118 -62 -150 -133 -20 -46 -20 -61 -20 -735 1
-669 1 -689 21 -733 27 -60 54 -88 114 -116 l50 -24 685 1 c546 0 693 3 723
13 59 22 107 64 133 120 l23 51 1 686 c0 497 -3 695 -11 720 -18 50 -66 107
-113 132 l-41 22 -695 2 c-382 1 -706 -2 -720 -6z"/>
</g>
</svg>
